<?xml version="1.0" encoding="UTF-8" standalone="no"?>
<!DOCTYPE svg PUBLIC "-//W3C//DTD SVG 1.1//EN"
 "http://www.w3.org/Graphics/SVG/1.1/DTD/svg11.dtd">
<!-- Generated by graphviz version 2.40.1 (20161225.0304)
 -->
<!-- Title: serial Pages: 1 -->
<svg width="437pt" height="282pt"
 viewBox="0.00 0.00 437.26 282.00" xmlns="http://www.w3.org/2000/svg" xmlns:xlink="http://www.w3.org/1999/xlink">
<g id="graph0" class="graph" transform="scale(1 1) rotate(0) translate(4 278)">
<title>serial</title>
<polygon fill="#ffffff" stroke="transparent" points="-4,4 -4,-278 433.2559,-278 433.2559,4 -4,4"/>
<text text-anchor="middle" x="214.6279" y="-6.8" font-family="Times,serif" font-size="14.00" fill="#000000">Multiple parallel availability</text>
<!-- client -->
<!-- router -->
<g id="node2" class="node">
<title>router</title>
<polygon fill="#add8e6" stroke="#000000" points="195.6219,-166 89.7922,-166 89.7922,-130 195.6219,-130 195.6219,-166"/>
<text text-anchor="middle" x="142.707" y="-143.8" font-family="Times,serif" font-size="14.00" fill="#000000">router (99.99%)</text>
</g>
<!-- client&#45;&gt;router -->
<g id="edge1" class="edge">
<title>client&#45;&gt;router</title>
<path fill="none" stroke="#696969" d="M54.1282,-148C61.8932,-148 70.6985,-148 79.6715,-148"/>
<polygon fill="#696969" stroke="#696969" points="79.8269,-151.5001 89.8269,-148 79.8269,-144.5001 79.8269,-151.5001"/>
</g>
<!-- zoneA -->
<g id="node3" class="node">
<title>zoneA</title>
<polygon fill="#add8e6" stroke="#000000" points="325.1694,-274 232.1831,-274 232.1831,-238 325.1694,-238 325.1694,-274"/>
<text text-anchor="middle" x="278.6763" y="-251.8" font-family="Times,serif" font-size="14.00" fill="#000000">zone A (95%)</text>
</g>
<!-- router&#45;&gt;zoneA -->
<g id="edge2" class="edge">
<title>router&#45;&gt;zoneA</title>
<path fill="none" stroke="#696969" d="M160.3712,-166.3229C177.5804,-183.6249 204.9482,-209.7226 231.4141,-229 232.9895,-230.1475 234.6178,-231.2854 236.2803,-232.4077"/>
<polygon fill="#696969" stroke="#696969" points="234.483,-235.4129 244.7908,-237.8625 238.2604,-229.5196 234.483,-235.4129"/>
</g>
<!-- zoneB -->
<g id="node4" class="node">
<title>zoneB</title>
<polygon fill="#add8e6" stroke="#000000" points="325.4285,-220 231.924,-220 231.924,-184 325.4285,-184 325.4285,-220"/>
<text text-anchor="middle" x="278.6763" y="-197.8" font-family="Times,serif" font-size="14.00" fill="#000000">zone B (95%)</text>
</g>
<!-- router&#45;&gt;zoneB -->
<g id="edge3" class="edge">
<title>router&#45;&gt;zoneB</title>
<path fill="none" stroke="#696969" d="M188.3611,-166.1314C199.5718,-170.5838 211.694,-175.3981 223.3071,-180.0102"/>
<polygon fill="#696969" stroke="#696969" points="222.3255,-183.3862 232.9113,-183.8245 224.9093,-176.8805 222.3255,-183.3862"/>
</g>
<!-- zoneC -->
<g id="node5" class="node">
<title>zoneC</title>
<polygon fill="#add8e6" stroke="#000000" points="325.4285,-166 231.924,-166 231.924,-130 325.4285,-130 325.4285,-166"/>
<text text-anchor="middle" x="278.6763" y="-143.8" font-family="Times,serif" font-size="14.00" fill="#000000">zone C (95%)</text>
</g>
<!-- router&#45;&gt;zoneC -->
<g id="edge4" class="edge">
<title>router&#45;&gt;zoneC</title>
<path fill="none" stroke="#696969" d="M195.6656,-148C204.2407,-148 213.1516,-148 221.8147,-148"/>
<polygon fill="#696969" stroke="#696969" points="221.8358,-151.5001 231.8358,-148 221.8358,-144.5001 221.8358,-151.5001"/>
</g>
<!-- zoneD -->
<g id="node6" class="node">
<title>zoneD</title>
<polygon fill="#add8e6" stroke="#000000" points="325.7019,-112 231.6507,-112 231.6507,-76 325.7019,-76 325.7019,-112"/>
<text text-anchor="middle" x="278.6763" y="-89.8" font-family="Times,serif" font-size="14.00" fill="#000000">zone D (95%)</text>
</g>
<!-- router&#45;&gt;zoneD -->
<g id="edge5" class="edge">
<title>router&#45;&gt;zoneD</title>
<path fill="none" stroke="#696969" d="M188.3611,-129.8686C199.5718,-125.4162 211.694,-120.6019 223.3071,-115.9898"/>
<polygon fill="#696969" stroke="#696969" points="224.9093,-119.1195 232.9113,-112.1755 222.3255,-112.6138 224.9093,-119.1195"/>
</g>
<!-- zoneE -->
<g id="node7" class="node">
<title>zoneE</title>
<polygon fill="#add8e6" stroke="#000000" points="325.1421,-58 232.2104,-58 232.2104,-22 325.1421,-22 325.1421,-58"/>
<text text-anchor="middle" x="278.6763" y="-35.8" font-family="Times,serif" font-size="14.00" fill="#000000">zone E (95%)</text>
</g>
<!-- router&#45;&gt;zoneE -->
<g id="edge6" class="edge">
<title>router&#45;&gt;zoneE</title>
<path fill="none" stroke="#696969" d="M160.3712,-129.6771C177.5804,-112.3751 204.9482,-86.2774 231.4141,-67 232.9895,-65.8525 234.6178,-64.7146 236.2803,-63.5923"/>
<polygon fill="#696969" stroke="#696969" points="238.2604,-66.4804 244.7908,-58.1375 234.483,-60.5871 238.2604,-66.4804"/>
</g>
<!-- upstream -->
<g id="node8" class="node">
<title>upstream</title>
<polygon fill="#add8e6" stroke="#000000" points="429.4153,-166 361.779,-166 361.779,-130 429.4153,-130 429.4153,-166"/>
<text text-anchor="middle" x="395.5972" y="-143.8" font-family="Times,serif" font-size="14.00" fill="#000000">upstream</text>
</g>
<!-- zoneA&#45;&gt;upstream -->
<g id="edge7" class="edge">
<title>zoneA&#45;&gt;upstream</title>
<path fill="none" stroke="#696969" d="M313.6596,-237.8466C317.9473,-235.0978 322.148,-232.1271 325.9385,-229 345.1883,-213.1194 363.4454,-191.5572 376.4359,-174.6722"/>
<polygon fill="#696969" stroke="#696969" points="379.5039,-176.4166 382.7264,-166.3237 373.9133,-172.2041 379.5039,-176.4166"/>
</g>
<!-- zoneB&#45;&gt;upstream -->
<g id="edge8" class="edge">
<title>zoneB&#45;&gt;upstream</title>
<path fill="none" stroke="#696969" d="M317.9345,-183.8686C329.0259,-178.746 341.1548,-173.1443 352.4608,-167.9225"/>
<polygon fill="#696969" stroke="#696969" points="354.1126,-171.015 361.7236,-163.6445 351.1775,-164.66 354.1126,-171.015"/>
</g>
<!-- zoneC&#45;&gt;upstream -->
<g id="edge9" class="edge">
<title>zoneC&#45;&gt;upstream</title>
<path fill="none" stroke="#696969" d="M325.5588,-148C334.1405,-148 343.069,-148 351.564,-148"/>
<polygon fill="#696969" stroke="#696969" points="351.6586,-151.5001 361.6586,-148 351.6585,-144.5001 351.6586,-151.5001"/>
</g>
<!-- zoneD&#45;&gt;upstream -->
<g id="edge10" class="edge">
<title>zoneD&#45;&gt;upstream</title>
<path fill="none" stroke="#696969" d="M317.9345,-112.1314C329.0259,-117.254 341.1548,-122.8557 352.4608,-128.0775"/>
<polygon fill="#696969" stroke="#696969" points="351.1775,-131.34 361.7236,-132.3555 354.1126,-124.985 351.1775,-131.34"/>
</g>
<!-- zoneE&#45;&gt;upstream -->
<g id="edge11" class="edge">
<title>zoneE&#45;&gt;upstream</title>
<path fill="none" stroke="#696969" d="M313.6596,-58.1534C317.9473,-60.9022 322.148,-63.8729 325.9385,-67 345.1883,-82.8806 363.4454,-104.4428 376.4359,-121.3278"/>
<polygon fill="#696969" stroke="#696969" points="373.9133,-123.7959 382.7264,-129.6763 379.5039,-119.5834 373.9133,-123.7959"/>
</g>
</g>
</svg>
