<?xml version="1.0" encoding="UTF-8" standalone="no"?>
<!DOCTYPE svg PUBLIC "-//W3C//DTD SVG 1.1//EN"
 "http://www.w3.org/Graphics/SVG/1.1/DTD/svg11.dtd">
<!-- Generated by graphviz version 2.40.1 (20161225.0304)
 -->
<!-- Title: serial Pages: 1 -->
<svg width="436pt" height="120pt"
 viewBox="0.00 0.00 436.48 120.00" xmlns="http://www.w3.org/2000/svg" xmlns:xlink="http://www.w3.org/1999/xlink">
<g id="graph0" class="graph" transform="scale(1 1) rotate(0) translate(4 116)">
<title>serial</title>
<polygon fill="#ffffff" stroke="transparent" points="-4,4 -4,-116 432.4834,-116 432.4834,4 -4,4"/>
<text text-anchor="middle" x="214.2417" y="-6.8" font-family="Times,serif" font-size="14.00" fill="#000000">Parallel availability</text>
<!-- client -->
<!-- router -->
<g id="node2" class="node">
<title>router</title>
<polygon fill="#add8e6" stroke="#000000" points="195.6219,-85 89.7922,-85 89.7922,-49 195.6219,-49 195.6219,-85"/>
<text text-anchor="middle" x="142.707" y="-62.8" font-family="Times,serif" font-size="14.00" fill="#000000">router (99.99%)</text>
</g>
<!-- client&#45;&gt;router -->
<g id="edge1" class="edge">
<title>client&#45;&gt;router</title>
<path fill="none" stroke="#696969" d="M54.1282,-67C61.8932,-67 70.6985,-67 79.6715,-67"/>
<polygon fill="#696969" stroke="#696969" points="79.8269,-70.5001 89.8269,-67 79.8269,-63.5001 79.8269,-70.5001"/>
</g>
<!-- zoneA -->
<g id="node3" class="node">
<title>zoneA</title>
<polygon fill="#add8e6" stroke="#000000" points="324.7832,-112 231.7969,-112 231.7969,-76 324.7832,-76 324.7832,-112"/>
<text text-anchor="middle" x="278.29" y="-89.8" font-family="Times,serif" font-size="14.00" fill="#000000">zone A (95%)</text>
</g>
<!-- router&#45;&gt;zoneA -->
<g id="edge2" class="edge">
<title>router&#45;&gt;zoneA</title>
<path fill="none" stroke="#696969" d="M195.5152,-77.5162C204.0659,-79.219 212.9515,-80.9885 221.59,-82.7088"/>
<polygon fill="#696969" stroke="#696969" points="221.0916,-86.1782 231.5826,-84.6987 222.4588,-79.313 221.0916,-86.1782"/>
</g>
<!-- zoneB -->
<g id="node4" class="node">
<title>zoneB</title>
<polygon fill="#add8e6" stroke="#000000" points="325.0423,-58 231.5378,-58 231.5378,-22 325.0423,-22 325.0423,-58"/>
<text text-anchor="middle" x="278.29" y="-35.8" font-family="Times,serif" font-size="14.00" fill="#000000">zone B (95%)</text>
</g>
<!-- router&#45;&gt;zoneB -->
<g id="edge3" class="edge">
<title>router&#45;&gt;zoneB</title>
<path fill="none" stroke="#696969" d="M195.5152,-56.4838C203.9591,-54.8023 212.7294,-53.0557 221.266,-51.3558"/>
<polygon fill="#696969" stroke="#696969" points="222.0224,-54.774 231.1462,-49.3882 220.6552,-47.9088 222.0224,-54.774"/>
</g>
<!-- upstream -->
<g id="node5" class="node">
<title>upstream</title>
<polygon fill="#add8e6" stroke="#000000" points="428.6428,-85 361.0066,-85 361.0066,-49 428.6428,-49 428.6428,-85"/>
<text text-anchor="middle" x="394.8247" y="-62.8" font-family="Times,serif" font-size="14.00" fill="#000000">upstream</text>
</g>
<!-- zoneA&#45;&gt;upstream -->
<g id="edge4" class="edge">
<title>zoneA&#45;&gt;upstream</title>
<path fill="none" stroke="#696969" d="M325.0177,-83.1736C333.6651,-81.1701 342.6657,-79.0848 351.216,-77.1037"/>
<polygon fill="#696969" stroke="#696969" points="352.0463,-80.5042 360.9982,-74.8373 350.4663,-73.6848 352.0463,-80.5042"/>
</g>
<!-- zoneB&#45;&gt;upstream -->
<g id="edge5" class="edge">
<title>zoneB&#45;&gt;upstream</title>
<path fill="none" stroke="#696969" d="M325.3532,-50.9041C333.7962,-52.8603 342.5653,-54.892 350.915,-56.8265"/>
<polygon fill="#696969" stroke="#696969" points="350.3096,-60.2789 360.8415,-59.1264 351.8896,-53.4595 350.3096,-60.2789"/>
</g>
</g>
</svg>
