<?xml version="1.0" encoding="UTF-8" standalone="no"?>
<!DOCTYPE svg PUBLIC "-//W3C//DTD SVG 1.1//EN"
 "http://www.w3.org/Graphics/SVG/1.1/DTD/svg11.dtd">
<!-- Generated by graphviz version 2.40.1 (20161225.0304)
 -->
<!-- Title: serial Pages: 1 -->
<svg width="453pt" height="66pt"
 viewBox="0.00 0.00 452.83 66.00" xmlns="http://www.w3.org/2000/svg" xmlns:xlink="http://www.w3.org/1999/xlink">
<g id="graph0" class="graph" transform="scale(1 1) rotate(0) translate(4 62)">
<title>serial</title>
<polygon fill="#ffffff" stroke="transparent" points="-4,4 -4,-62 448.835,-62 448.835,4 -4,4"/>
<text text-anchor="middle" x="222.4175" y="-6.8" font-family="Times,serif" font-size="14.00" fill="#000000">Serial availability</text>
<!-- client -->
<!-- router -->
<g id="node2" class="node">
<title>router</title>
<polygon fill="#add8e6" stroke="#000000" points="195.6219,-58 89.7922,-58 89.7922,-22 195.6219,-22 195.6219,-58"/>
<text text-anchor="middle" x="142.707" y="-35.8" font-family="Times,serif" font-size="14.00" fill="#000000">router (99.99%)</text>
</g>
<!-- client&#45;&gt;router -->
<g id="edge1" class="edge">
<title>client&#45;&gt;router</title>
<path fill="none" stroke="#696969" d="M54.1282,-40C61.8932,-40 70.6985,-40 79.6715,-40"/>
<polygon fill="#696969" stroke="#696969" points="79.8269,-43.5001 89.8269,-40 79.8269,-36.5001 79.8269,-43.5001"/>
</g>
<!-- zoneA -->
<g id="node3" class="node">
<title>zoneA</title>
<polygon fill="#add8e6" stroke="#000000" points="324.4038,-58 231.4175,-58 231.4175,-22 324.4038,-22 324.4038,-58"/>
<text text-anchor="middle" x="277.9106" y="-35.8" font-family="Times,serif" font-size="14.00" fill="#000000">zone A (95%)</text>
</g>
<!-- router&#45;&gt;zoneA -->
<g id="edge2" class="edge">
<title>router&#45;&gt;zoneA</title>
<path fill="none" stroke="#696969" d="M195.755,-40C204.0651,-40 212.6833,-40 221.0743,-40"/>
<polygon fill="#696969" stroke="#696969" points="221.1609,-43.5001 231.1608,-40 221.1608,-36.5001 221.1609,-43.5001"/>
</g>
<!-- downstream -->
<!-- zoneA&#45;&gt;downstream -->
<g id="edge3" class="edge">
<title>zoneA&#45;&gt;downstream</title>
<path fill="none" stroke="#696969" d="M324.703,-40C332.958,-40 341.6017,-40 350.0036,-40"/>
<polygon fill="#696969" stroke="#696969" points="350.0898,-43.5001 360.0897,-40 350.0897,-36.5001 350.0898,-43.5001"/>
</g>
</g>
</svg>
